<svg width="325" height="115" viewBox="0 0 325 115" fill="none" xmlns="http://www.w3.org/2000/svg">
<path d="M38.4875 12.3479L13.9507 36.0641L11.9472 33.9913L36.484 10.275L38.4875 12.3479ZM53.1473 27.5148L31.6776 27.7962L21.2894 27.5366L23.4027 25.1029L31.989 25.0831L50.6389 24.9196L53.1473 27.5148ZM26.9491 49.5122L29.5696 26.9979L32.4433 26.6324L29.3761 52.0231L26.9491 49.5122Z" fill="white"/>
<path d="M53.1831 64.44L60.8831 53.8689C61.5915 52.8965 62.0012 51.9094 62.1122 50.9077C62.2232 49.9061 62.0252 48.9306 61.5182 47.9814C61.0111 47.0321 60.1829 46.1389 59.0336 45.3017C57.9727 44.529 56.8875 44.0285 55.778 43.8002C54.6903 43.5685 53.6764 43.5936 52.7365 43.8755C51.8185 44.1539 51.0834 44.6721 50.5315 45.4299L48.2719 43.755C48.8331 42.9846 49.5653 42.3774 50.4686 41.9335C51.3718 41.4896 52.3778 41.2365 53.4864 41.1741C54.595 41.1118 55.7488 41.266 56.9479 41.6368C58.1688 42.0041 59.3602 42.611 60.5221 43.4573C61.9871 44.5245 63.096 45.7091 63.8486 47.0112C64.6139 48.3226 64.9534 49.7008 64.8674 51.1459C64.7813 52.591 64.1955 54.0587 63.1099 55.549L55.8929 65.4569C55.3777 66.1642 54.8947 66.9335 54.4437 67.7649C54.0054 68.6055 53.7079 69.3456 53.5512 69.9854L53.3856 70.2127L50.9797 68.4602C51.1593 67.8952 51.4533 67.2394 51.8616 66.493C52.2918 65.7432 52.7323 65.0588 53.1831 64.44ZM59.7301 56.5666L58.4984 58.3371L54.0464 55.0942C52.8845 54.2479 51.7644 53.5962 50.686 53.1394C49.6295 52.6791 48.6383 52.421 47.7124 52.3652C46.7957 52.2967 45.9645 52.4162 45.2187 52.7235C44.4856 53.04 43.8614 53.5519 43.3462 54.2592C42.8127 54.9917 42.5082 55.7945 42.4329 56.6675C42.3702 57.5497 42.5465 58.4223 42.9617 59.2853C43.3987 60.1449 44.0909 60.9197 45.0381 61.6097C46.3011 62.5297 47.5827 63.1056 48.8829 63.3374C50.1958 63.5785 51.444 63.5501 52.6274 63.2523C53.8109 62.9545 54.8365 62.4355 55.7044 61.6951L55.7374 63.7199C55.1132 64.2318 54.3363 64.6614 53.4067 65.0088C52.4989 65.3528 51.4861 65.5622 50.3683 65.6372C49.2597 65.6996 48.0984 65.5689 46.8844 65.2452C45.6922 64.9181 44.5025 64.3221 43.3153 63.4574C41.9766 62.4822 40.9923 61.3787 40.3625 60.1467C39.7454 58.924 39.4764 57.6745 39.5554 56.3982C39.6563 55.1186 40.1115 53.9231 40.9211 52.8116C41.6571 51.8013 42.5295 51.0546 43.5385 50.5717C44.5567 50.0762 45.6723 49.845 46.8854 49.8781C48.1203 49.9077 49.4182 50.1959 50.7791 50.7425C52.1618 51.2858 53.5731 52.0818 55.0129 53.1305L59.7301 56.5666Z" fill="white"/>
<path d="M76.7706 59.3566L66.7582 78.0024L64.3009 76.683L76.2982 54.341L78.6934 55.6272L76.7706 59.3566ZM86.7526 59.742L85.4709 61.9801C85.2178 61.7909 84.9679 61.6124 84.7211 61.4444C84.4743 61.2764 84.1995 61.1111 83.8967 60.9485C82.8229 60.3719 81.7728 60.0652 80.7462 60.0282C79.7408 59.985 78.7743 60.1665 77.8467 60.5729C76.9265 60.9655 76.0705 61.5522 75.2787 62.3331C74.4944 63.1001 73.797 64.0026 73.1865 65.0404L72.0894 64.9035C72.873 63.4443 73.7525 62.1697 74.7281 61.0797C75.7036 59.9896 76.7524 59.1428 77.8745 58.5394C79.0178 57.9296 80.2048 57.6182 81.4355 57.6051C82.6874 57.5857 83.9604 57.9234 85.2544 58.6182C85.571 58.7882 85.8659 58.9821 86.1392 59.1998C86.4337 59.4111 86.6381 59.5918 86.7526 59.742Z" fill="white"/>
<path d="M97.0751 64.4095L87.3224 87.8185L84.7479 86.7459L94.5005 63.3368L97.0751 64.4095ZM96.8674 56.3758C97.0717 55.8854 97.3944 55.5374 97.8355 55.3319C98.2971 55.1179 98.8019 55.1251 99.35 55.3535C99.8981 55.5818 100.259 55.9352 100.432 56.4135C100.625 56.8835 100.62 57.3636 100.416 57.854C100.217 58.33 99.8801 58.672 99.4042 58.8799C98.9487 59.0794 98.4469 59.065 97.8988 58.8367C97.3507 58.6084 96.9871 58.2622 96.808 57.7983C96.6493 57.3259 96.6691 56.8518 96.8674 56.3758Z" fill="white"/>
<path d="M109.482 58.0226L112.192 58.7752L103.875 88.7199L102.377 93.412L99.848 92.7096L109.482 58.0226ZM123.019 85.742L122.887 86.2162C122.381 88.0379 121.706 89.6505 120.862 91.054C120.018 92.4574 119.043 93.6054 117.935 94.4979C116.832 95.3753 115.617 95.9541 114.291 96.2344C112.979 96.5188 111.578 96.454 110.088 96.0401C108.628 95.6345 107.396 95.0491 106.392 94.2838C105.392 93.5035 104.611 92.581 104.047 91.5163C103.487 90.4366 103.126 89.2577 102.962 87.9797C102.802 86.6866 102.816 85.3204 103.005 83.881L104.68 77.8514C105.316 76.4387 106.049 75.1992 106.88 74.1327C107.712 73.0663 108.64 72.2052 109.665 71.5494C110.706 70.8978 111.84 70.4913 113.069 70.3298C114.313 70.1726 115.65 70.2925 117.08 70.6898C118.57 71.1037 119.814 71.7652 120.81 72.6744C121.825 73.5726 122.579 74.682 123.072 76.0027C123.569 77.3082 123.815 78.7874 123.81 80.4401C123.809 82.0777 123.545 83.845 123.019 85.742ZM120.154 85.4573L120.286 84.9831C120.683 83.5528 120.916 82.1903 120.983 80.8956C121.051 79.6009 120.917 78.4203 120.581 77.3539C120.264 76.2767 119.724 75.3567 118.963 74.5939C118.202 73.8312 117.189 73.2742 115.925 72.923C114.63 72.5634 113.463 72.4743 112.423 72.6559C111.403 72.8265 110.493 73.182 109.694 73.7224C108.915 74.2518 108.237 74.8825 107.661 75.6144C107.085 76.3462 106.603 77.0881 106.216 77.84L104.265 84.8633C104.207 86.0635 104.357 87.2482 104.713 88.4175C105.069 89.5867 105.696 90.6284 106.594 91.5426C107.495 92.4416 108.714 93.1044 110.25 93.5309C111.484 93.8738 112.617 93.9126 113.647 93.6475C114.693 93.3865 115.627 92.8838 116.45 92.1393C117.288 91.3991 118.012 90.4569 118.621 89.3127C119.246 88.1727 119.757 86.8875 120.154 85.4573Z" fill="white"/>
<path d="M148.536 96.3345L150.595 76.9435L153.392 77.2404L150.714 102.458L148.034 102.173L148.536 96.3345ZM149.544 91.7276L150.994 91.8344C150.825 93.4193 150.484 94.86 149.969 96.1567C149.454 97.4533 148.748 98.5568 147.85 99.467C146.952 100.377 145.845 101.038 144.528 101.448C143.212 101.858 141.668 101.969 139.897 101.781C138.67 101.651 137.561 101.36 136.572 100.909C135.6 100.445 134.789 99.793 134.14 98.9541C133.491 98.1152 133.028 97.0684 132.753 95.8135C132.493 94.5603 132.455 93.0714 132.638 91.3467L134.35 75.2186L137.124 75.5131L135.406 91.6878C135.263 93.0396 135.291 94.1818 135.49 95.1143C135.706 96.0485 136.048 96.8155 136.519 97.4154C137.005 98.017 137.585 98.4714 138.26 98.7787C138.934 99.086 139.675 99.2826 140.483 99.3684C142.534 99.5861 144.192 99.3615 145.457 98.6945C146.738 98.0291 147.695 97.078 148.329 95.8411C148.981 94.5904 149.385 93.2192 149.544 91.7276Z" fill="white"/>
<path d="M180.099 67.7333L185.448 101.437L182.601 101.888L177.252 68.1852L180.099 67.7333ZM200.932 64.4272L188.846 82.1737L182.673 90.5335L181.892 87.4064L186.802 80.3623L197.367 64.9929L200.932 64.4272ZM203.92 98.5051L186.982 83.4424L188.332 80.8789L207.369 97.9578L203.92 98.5051Z" fill="white"/>
<path d="M222.83 87.1398L221.738 66.7991L223.582 66.1081L224.319 71.4135L225.394 92.5112L223.55 93.2022L222.83 87.1398ZM210.063 71.1756L221.949 87.595L225.065 92.6346L223.155 93.3503L207.363 72.1874L210.063 71.1756ZM237.55 81.672L235.608 61.6001L238.308 60.5882L240.317 86.9173L238.43 87.6247L237.55 81.672ZM223.955 65.9683L236.357 81.894L239.922 87.0654L238.079 87.7564L224.881 71.1776L222.023 66.6922L223.955 65.9683Z" fill="white"/>
<path d="M266.43 73.7799C265.013 74.6376 263.552 75.166 262.047 75.3649C260.555 75.5557 259.081 75.4437 257.624 75.0288C256.18 74.6058 254.826 73.8916 253.56 72.8864C252.299 71.8598 251.199 70.5712 250.26 69.0207L249.738 68.1586C248.727 66.4878 248.06 64.8277 247.737 63.1783C247.414 61.5289 247.396 59.96 247.682 58.4716C247.968 56.9833 248.512 55.6493 249.314 54.4697C250.121 53.2687 251.14 52.296 252.369 51.5515C253.746 50.718 255.119 50.2248 256.488 50.072C257.848 49.9058 259.16 50.052 260.424 50.5106C261.694 50.9477 262.884 51.6611 263.994 52.6508C265.097 53.6272 266.089 54.8439 266.971 56.3008L267.857 57.7644L251.437 67.7057L250.199 65.6606L264.233 57.1638L264.063 56.8831C263.3 55.683 262.365 54.6965 261.258 53.9238C260.156 53.1297 258.948 52.6736 257.635 52.5555C256.321 52.4375 254.983 52.7912 253.62 53.6166C252.604 54.2316 251.798 55.0119 251.201 55.9575C250.618 56.895 250.262 57.9509 250.132 59.1251C250.008 60.2779 250.111 61.5034 250.441 62.8018C250.775 64.0787 251.343 65.3787 252.144 66.702L252.666 67.5641C253.394 68.7671 254.248 69.7846 255.227 70.6168C256.211 71.4275 257.269 72.0289 258.401 72.421C259.547 72.805 260.708 72.9424 261.884 72.8332C263.06 72.7241 264.196 72.3377 265.292 71.6741C266.575 70.8973 267.569 69.9755 268.275 68.9089C268.973 67.8289 269.405 66.5356 269.57 65.0289L271.778 65.2814C271.731 66.2597 271.531 67.2573 271.179 68.2743C270.84 69.2832 270.288 70.2568 269.522 71.1951C268.757 72.1333 267.726 72.9949 266.43 73.7799Z" fill="white"/>
<path d="M274.993 35.8443L276.43 37.6361L266.521 45.584L265.084 43.7922L274.993 35.8443ZM264.646 35.7913L266.821 34.0462L282.908 54.1032C283.641 55.0174 284.315 55.6083 284.93 55.876C285.546 56.1436 286.112 56.2003 286.629 56.0459C287.146 55.8915 287.63 55.6335 288.081 55.2718C288.41 55.0078 288.712 54.7354 288.988 54.4544C289.253 54.1613 289.489 53.8925 289.693 53.6483L291.266 55.4216C291.066 55.722 290.772 56.0676 290.385 56.4585C290.007 56.8616 289.605 57.2343 289.178 57.5764C288.337 58.251 287.472 58.6949 286.581 58.9083C285.681 59.1096 284.745 58.9789 283.773 58.5165C282.792 58.0419 281.773 57.1464 280.717 55.8299L264.646 35.7913Z" fill="white"/>
<path d="M306.871 31.8458L292.711 18.4391L294.645 16.3968L313.06 33.832L311.206 35.7892L306.871 31.8458ZM303.822 28.2486L304.787 27.1612C305.944 28.2569 306.882 29.4029 307.6 30.5991C308.318 31.7952 308.766 33.0264 308.944 34.2926C309.122 35.5588 308.975 36.8394 308.502 38.1344C308.029 39.4295 307.18 40.7237 305.955 42.0172C305.107 42.9136 304.203 43.618 303.244 44.1305C302.285 44.6209 301.275 44.8696 300.214 44.8765C299.153 44.8834 298.041 44.6154 296.877 44.0724C295.723 43.5182 294.516 42.6448 293.257 41.4524L281.48 30.3016L283.397 28.2763L295.209 39.4593C296.196 40.3939 297.12 41.065 297.983 41.4725C298.855 41.8686 299.673 42.0618 300.436 42.052C301.209 42.0309 301.922 41.8456 302.576 41.4961C303.229 41.1467 303.835 40.677 304.394 40.087C305.812 38.5893 306.64 37.1353 306.878 35.7251C307.126 34.3036 306.951 32.9655 306.353 31.7108C305.755 30.434 304.911 29.2799 303.822 28.2486Z" fill="white"/>
</svg>
