<svg width="429" height="139" viewBox="0 0 429 139" fill="none" xmlns="http://www.w3.org/2000/svg">
<path d="M44.7909 16.5731L17.3308 52.8525L14.266 50.5327L41.7261 14.2533L44.7909 16.5731ZM67.2164 33.547L38.9888 38.3227L25.2495 40.1122L27.5343 36.4723L38.8423 34.6846L63.3791 30.6426L67.2164 33.547ZM37.2148 67.9027L36.0478 37.7035L39.7588 36.6324L40.9274 70.7128L37.2148 67.9027Z" fill="white"/>
<path d="M72.6736 81.9436L81.1435 66.7014C81.9227 65.2992 82.3043 63.9262 82.2882 62.5826C82.2722 61.239 81.8514 59.9803 81.0259 58.8066C80.2005 57.6329 78.9591 56.5856 77.302 55.6647C75.7723 54.8147 74.2547 54.3289 72.7492 54.2074C71.2721 54.0777 69.9345 54.2759 68.7365 54.8019C67.5669 55.3198 66.6785 56.125 66.0713 57.2177L62.8086 55.3689C63.4259 54.258 64.2961 53.3354 65.4192 52.601C66.5423 51.8665 67.8324 51.3679 69.2893 51.105C70.7463 50.8421 72.2983 50.8584 73.9454 51.154C75.6209 51.4415 77.2963 52.0508 78.9716 52.9817C81.0841 54.1556 82.7442 55.5429 83.9521 57.1436C85.1782 58.7544 85.8518 60.523 85.9731 62.4494C86.0943 64.3758 85.5578 66.4135 84.3638 68.5623L76.4251 82.8485C75.8584 83.8683 75.3443 84.965 74.8828 86.1386C74.4396 87.3223 74.1663 88.3502 74.063 89.2223L73.8809 89.5501L70.4117 87.6224C70.5575 86.8454 70.8399 85.9298 71.2589 84.8756C71.7062 83.8133 72.1777 82.836 72.6736 81.9436ZM80.0565 70.4589L78.7147 73.0023L72.2954 69.4353C70.6201 68.5043 69.0317 67.8242 67.5303 67.3951C66.0572 66.9578 64.7035 66.7776 63.4691 66.8544C62.2449 66.9129 61.1643 67.2062 60.2274 67.7343C59.3087 68.2725 58.5659 69.0514 57.9993 70.0712C57.4123 71.1274 57.1401 72.2393 57.1824 73.4069C57.243 74.5846 57.6183 75.7107 58.3082 76.7853C59.0264 77.8517 60.0684 78.7644 61.4342 79.5234C63.2553 80.5353 65.045 81.0889 66.8035 81.1842C68.5801 81.2896 70.2273 81.049 71.7449 80.4623C73.2626 79.8757 74.5355 79.0219 75.5636 77.9009L75.9366 80.5751C75.1939 81.354 74.2357 82.049 73.062 82.66C71.9167 83.2629 70.6104 83.7049 69.1434 83.986C67.6864 84.2489 66.1283 84.265 64.4691 84.0341C62.8381 83.7952 61.1668 83.2001 59.455 82.2489C57.5246 81.1762 56.0426 79.876 55.0087 78.3481C53.993 76.8304 53.4337 75.2206 53.3307 73.5188C53.256 71.8089 53.6639 70.1527 54.5544 68.5502C55.3639 67.0934 56.3971 65.9633 57.6537 65.1601C58.9205 64.3387 60.3593 63.8512 61.97 63.6976C63.6091 63.5358 65.3736 63.706 67.2635 64.208C69.1817 64.7019 71.1789 65.5257 73.2549 66.6793L80.0565 70.4589Z" fill="white"/>
<path d="M102.255 71.3824L91.3292 97.4002L87.9005 95.9603L100.992 64.7851L104.335 66.1887L102.255 71.3824ZM115.553 70.6286L114.136 73.7617C113.776 73.5428 113.421 73.3374 113.072 73.1458C112.724 72.9541 112.338 72.7695 111.915 72.5921C110.417 71.9629 108.984 71.6889 107.617 71.77C106.277 71.84 105.017 72.2034 103.838 72.8604C102.666 73.4982 101.604 74.3854 100.652 75.5222C99.7084 76.6398 98.8971 77.926 98.2184 79.3808L96.7449 79.3383C97.6 77.3022 98.6058 75.4989 99.7624 73.9284C100.919 72.3579 102.204 71.101 103.617 70.1579C105.057 69.2035 106.593 68.6397 108.225 68.4664C109.884 68.2819 111.616 68.5688 113.422 69.327C113.864 69.5125 114.28 69.7325 114.67 69.9867C115.088 70.2299 115.382 70.4439 115.553 70.6286Z" fill="white"/>
<path d="M128.123 75.1561L117.465 107.245L113.936 106.073L124.594 73.9839L128.123 75.1561ZM127.054 64.4944C127.277 63.8222 127.672 63.3277 128.238 63.0108C128.831 62.6808 129.503 62.6405 130.254 62.8901C131.006 63.1396 131.52 63.5739 131.797 64.1929C132.101 64.7987 132.141 65.4377 131.918 66.1099C131.701 66.7623 131.287 67.2503 130.674 67.5738C130.088 67.884 129.42 67.9144 128.668 67.6648C127.917 67.4153 127.399 66.9909 127.116 66.3917C126.858 65.7793 126.837 65.1469 127.054 64.4944Z" fill="white"/>
<path d="M143.663 65.3645L147.322 66.1861L138.243 106.617L136.562 112.965L133.147 112.198L143.663 65.3645ZM163.538 101.375L163.394 102.015C162.842 104.475 162.05 106.667 161.02 108.592C159.99 110.518 158.767 112.111 157.352 113.374C155.942 114.616 154.363 115.468 152.615 115.929C150.887 116.395 149.017 116.403 147.005 115.951C145.033 115.508 143.354 114.811 141.966 113.858C140.583 112.886 139.481 111.71 138.659 110.329C137.842 108.929 137.281 107.383 136.978 105.692C136.679 103.981 136.607 102.161 136.763 100.231L138.591 92.0901C139.343 90.1665 140.237 88.4669 141.273 86.9913C142.309 85.5158 143.488 84.3072 144.809 83.3655C146.151 82.4285 147.635 81.8115 149.261 81.5145C150.906 81.2221 152.695 81.2927 154.626 81.7263C156.638 82.1782 158.338 82.9762 159.725 84.1204C161.137 85.2489 162.215 86.676 162.959 88.4018C163.708 90.1073 164.134 92.0606 164.238 94.2618C164.346 96.4426 164.113 98.8136 163.538 101.375ZM159.704 101.187L159.848 100.546C160.282 98.6154 160.5 96.7855 160.504 95.0568C160.508 93.3282 160.251 91.765 159.732 90.3674C159.238 88.954 158.458 87.7648 157.394 86.7998C156.33 85.8348 154.944 85.1606 153.236 84.7772C151.488 84.3847 149.928 84.344 148.555 84.6551C147.208 84.9504 146.02 85.4844 144.993 86.2572C143.99 87.0143 143.129 87.8993 142.411 88.9123C141.692 89.9253 141.1 90.9454 140.635 91.9725L138.506 101.455C138.509 103.057 138.787 104.625 139.339 106.158C139.892 107.692 140.796 109.037 142.052 110.194C143.313 111.332 144.98 112.133 147.053 112.599C148.72 112.973 150.231 112.949 151.585 112.527C152.96 112.11 154.17 111.378 155.217 110.332C156.283 109.29 157.185 107.987 157.92 106.423C158.676 104.863 159.271 103.118 159.704 101.187Z" fill="white"/>
<path d="M196.537 114.449L198.789 88.5464L202.525 88.8712L199.596 122.557L196.016 122.245L196.537 114.449ZM197.763 108.282L199.699 108.387C199.515 110.504 199.096 112.434 198.443 114.175C197.79 115.917 196.876 117.406 195.702 118.642C194.528 119.878 193.069 120.787 191.325 121.367C189.58 121.947 187.525 122.135 185.159 121.929C183.519 121.786 182.034 121.427 180.704 120.852C179.397 120.257 178.299 119.409 177.412 118.307C176.525 117.205 175.882 115.821 175.483 114.155C175.105 112.491 175.016 110.508 175.217 108.204L177.089 86.66L180.794 86.9821L178.916 108.588C178.759 110.394 178.825 111.916 179.115 113.154C179.426 114.394 179.902 115.407 180.545 116.195C181.208 116.985 181.993 117.576 182.9 117.968C183.807 118.361 184.8 118.604 185.879 118.698C188.619 118.936 190.823 118.594 192.493 117.673C194.183 116.753 195.435 115.461 196.249 113.796C197.085 112.112 197.59 110.274 197.763 108.282Z" fill="white"/>
<path d="M236.634 76.4535L242.277 121.602L238.463 122.079L232.82 76.9302L236.634 76.4535ZM264.542 72.9653L247.653 96.0821L239.06 106.951L238.157 102.749L245.01 93.5781L259.766 73.5621L264.542 72.9653ZM267.022 118.509L245.115 97.6906L247.026 94.334L271.642 117.932L267.022 118.509Z" fill="white"/>
<path d="M290.951 105.134L291.415 77.978L293.931 77.2325L294.412 84.3581L293.856 112.519L291.339 113.265L290.951 105.134ZM275.474 82.6994L289.737 105.656L293.406 112.652L290.8 113.425L271.789 83.791L275.474 82.6994ZM311.045 99.2477L310.351 72.3691L314.037 71.2775L314.231 106.484L311.654 107.248L311.045 99.2477ZM294.441 77.0816L309.437 99.4306L313.692 106.644L311.175 107.39L295.183 84.0974L291.804 77.8626L294.441 77.0816Z" fill="white"/>
<path d="M348.472 93.073C346.474 94.0138 344.463 94.5117 342.439 94.5666C340.435 94.6126 338.495 94.2594 336.621 93.507C334.766 92.7457 333.068 91.6107 331.529 90.102C329.999 88.5656 328.72 86.7042 327.69 84.5178L327.118 83.3021C326.008 80.9461 325.354 78.6521 325.155 76.4201C324.956 74.188 325.149 72.105 325.735 70.171C326.321 68.237 327.228 66.5436 328.455 65.0906C329.692 63.61 331.177 62.4614 332.911 61.6448C334.853 60.7305 336.742 60.2671 338.578 60.2544C340.405 60.2228 342.125 60.5988 343.738 61.3823C345.36 62.1381 346.839 63.2493 348.174 64.716C349.501 66.1637 350.648 67.9148 351.615 69.9693L352.587 72.0331L329.433 82.9372L328.075 80.0535L347.865 70.7337L347.679 70.3379C346.833 68.6405 345.73 67.2027 344.369 66.0243C343.018 64.8183 341.48 64.0458 339.755 63.707C338.029 63.3682 336.205 63.6514 334.283 64.5568C332.85 65.2313 331.673 66.1542 330.751 67.3254C329.847 68.4877 329.228 69.8385 328.894 71.3777C328.569 72.8891 328.536 74.5286 328.792 76.296C329.059 78.0357 329.631 79.8385 330.51 81.7045L331.083 82.9202C331.881 84.6165 332.872 86.0843 334.054 87.3237C335.247 88.5353 336.567 89.4797 338.014 90.1568C339.48 90.825 341 91.1684 342.575 91.1868C344.149 91.2052 345.709 90.8505 347.255 90.1227C349.064 89.2706 350.511 88.1863 351.595 86.8698C352.67 85.5344 353.422 83.8793 353.851 81.9043L356.743 82.5455C356.545 83.8363 356.142 85.1315 355.534 86.4312C354.944 87.7221 354.077 88.9365 352.932 90.0745C351.787 91.2125 350.3 92.212 348.472 93.073Z" fill="white"/>
<path d="M365.119 44.5873L366.71 47.2038L352.239 56.0057L350.648 53.3892L365.119 44.5873ZM351.446 42.7352L354.623 40.8027L372.438 70.0915C373.25 71.4264 374.04 72.3238 374.807 72.7836C375.575 73.2435 376.314 73.4159 377.024 73.3008C377.734 73.1858 378.419 72.9279 379.077 72.5274C379.558 72.235 380.004 71.9269 380.417 71.6028C380.819 71.2609 381.176 70.9461 381.488 70.6584L383.262 73.2738C382.946 73.6366 382.499 74.043 381.919 74.4932C381.35 74.9611 380.754 75.3845 380.131 75.7634C378.903 76.5105 377.682 76.9484 376.468 77.0772C375.243 77.1882 374.028 76.8544 372.823 76.0756C371.607 75.279 370.414 73.9196 369.245 71.9973L351.446 42.7352Z" fill="white"/>
<path d="M406.766 46.4528L390.906 25.8507L393.877 23.5632L414.504 50.3557L411.656 52.548L406.766 46.4528ZM403.498 41.081L404.996 39.8495C406.292 41.5333 407.288 43.2376 407.985 44.9623C408.682 46.687 409.016 48.4017 408.987 50.1064C408.959 51.811 408.498 53.4669 407.606 55.0741C406.714 56.6813 405.327 58.2093 403.445 59.6581C402.141 60.6621 400.804 61.4019 399.435 61.8775C398.07 62.3239 396.688 62.4413 395.289 62.2297C393.89 62.0181 392.481 61.4337 391.06 60.4765C389.656 59.5066 388.249 58.1055 386.838 56.2731L373.647 39.1377L376.593 36.8692L389.823 54.0541C390.929 55.4903 392.007 56.5664 393.058 57.2824C394.125 57.9857 395.162 58.4102 396.168 58.5559C397.19 58.6888 398.168 58.5932 399.102 58.2689C400.035 57.9446 400.931 57.4521 401.79 56.7912C403.969 55.1137 405.362 53.371 405.968 51.5632C406.591 49.7427 406.639 47.9441 406.113 46.1672C405.59 44.3612 404.719 42.6657 403.498 41.081Z" fill="white"/>
</svg>
